<svg width="116" height="116" viewBox="0 0 116 116" fill="none" xmlns="http://www.w3.org/2000/svg">
<g clip-path="url(#clip0_3_138)">
<path d="M58 116C90.1419 116 116 90.1419 116 58C116 25.8581 90.1419 0 58 0C25.8581 0 0 25.8581 0 58C0 90.1419 25.8581 116 58 116Z" fill="#2775CA"/>
<path d="M73.95 67.1832C73.95 58.725 68.875 55.825 58.725 54.6169C51.475 53.65 50.025 51.7169 50.025 48.3332C50.025 44.9494 52.4419 42.775 57.275 42.775C61.625 42.775 64.0419 44.225 65.25 47.85C65.4919 48.575 66.2169 49.0582 66.9419 49.0582H70.8082C71.775 49.0582 72.5 48.3332 72.5 47.3669V47.125C71.5332 41.8082 67.1832 37.7 61.625 37.2169V31.4169C61.625 30.45 60.9 29.725 59.6919 29.4832H56.0669C55.1 29.4832 54.375 30.2082 54.1332 31.4169V36.975C46.8832 37.9419 42.2919 42.775 42.2919 48.8169C42.2919 56.7919 47.125 59.9332 57.275 61.1419C64.0419 62.35 66.2169 63.8 66.2169 67.6669C66.2169 71.5337 62.8332 74.1919 58.2419 74.1919C51.9582 74.1919 49.7832 71.5332 49.0582 67.9082C48.8169 66.9419 48.0919 66.4582 47.3669 66.4582H43.2582C42.2919 66.4582 41.5669 67.1832 41.5669 68.15V68.3919C42.5332 74.4332 46.4 78.7832 54.375 79.9919V85.7919C54.375 86.7582 55.1 87.4832 56.3082 87.725H59.9332C60.9 87.725 61.625 87 61.8669 85.7919V79.9919C69.1169 78.7832 73.95 73.7082 73.95 67.1832Z" fill="white"/>
<path d="M45.6749 92.5581C26.825 85.7919 17.1581 64.7669 24.1668 46.1581C27.7918 36.0082 35.7668 28.275 45.6749 24.65C46.6418 24.1669 47.125 23.4419 47.125 22.2331V18.85C47.125 17.8831 46.6418 17.1582 45.6749 16.9169C45.4331 16.9169 44.95 16.9169 44.7081 17.1581C21.75 24.4081 9.18309 48.8169 16.4331 71.775C20.7831 85.3081 31.175 95.7 44.7081 100.05C45.675 100.533 46.6418 100.05 46.8831 99.0831C47.125 98.8419 47.125 98.6 47.125 98.1169V94.7331C47.125 94.0081 46.4 93.0419 45.6749 92.5581ZM71.2918 17.1581C70.325 16.675 69.3581 17.1581 69.1168 18.125C68.875 18.3669 68.875 18.6082 68.875 19.0919V22.475C68.875 23.4419 69.5999 24.4081 70.325 24.8919C89.1749 31.6581 98.8418 52.6831 91.8331 71.2919C88.2081 81.4419 80.2331 89.175 70.325 92.8C69.3581 93.2831 68.875 94.0081 68.875 95.2169V98.6C68.875 99.5669 69.3581 100.292 70.325 100.533C70.5668 100.533 71.05 100.533 71.2918 100.292C94.25 93.0419 106.817 68.6331 99.5668 45.675C95.2168 31.9 84.5831 21.5081 71.2918 17.1581Z" fill="white"/>
</g>
<defs>
<clipPath id="clip0_3_138">
<rect width="116" height="116" fill="white"/>
</clipPath>
</defs>
</svg>
